<svg xmlns="http://www.w3.org/2000/svg" viewBox="0 0 512 512" role="img" aria-label="SentinelEdge logo dark">
  <rect width="512" height="512" rx="112" fill="#0B1110"/>
  <path d="M256 82 378 130v104c0 88-50 150-122 196-72-46-122-108-122-196V130l122-48Z" fill="#0E9F6E"/>
  <path d="M256 124 338 156v74c0 62-30 109-82 145-52-36-82-83-82-145v-74l82-32Z" fill="#0B1110"/>
  <circle cx="256" cy="236" r="56" fill="#0E9F6E"/>
  <circle cx="256" cy="236" r="28" fill="#FFFFFF"/>
  <circle cx="256" cy="236" r="13" fill="#0B1110"/>
  <path d="M256 292v68" stroke="#0E9F6E" stroke-width="22" stroke-linecap="round"/>
  <circle cx="256" cy="374" r="18" fill="#FFFFFF"/>
  <circle cx="184" cy="300" r="15" fill="#0E9F6E"/>
  <circle cx="328" cy="300" r="15" fill="#0E9F6E"/>
</svg>